<svg xmlns="http://www.w3.org/2000/svg">
  <defs>
    <symbol id="setting" viewBox="0 0 24 24"><path d="M12.22 2h-.44a2 2 0 0 0-2 2v.18a2 2 0 0 1-1 1.73l-.43.25a2 2 0 0 1-2 0l-.15-.08a2 2 0 0 0-2.73.73l-.22.38a2 2 0 0 0 .73 2.73l.15.1a2 2 0 0 1 1 1.72v.51a2 2 0 0 1-1 1.74l-.15.09a2 2 0 0 0-.73 2.73l.22.38a2 2 0 0 0 2.73.73l.15-.08a2 2 0 0 1 2 0l.43.25a2 2 0 0 1 1 1.73V20a2 2 0 0 0 2 2h.44a2 2 0 0 0 2-2v-.18a2 2 0 0 1 1-1.73l.43-.25a2 2 0 0 1 2 0l.15.08a2 2 0 0 0 2.73-.73l.22-.39a2 2 0 0 0-.73-2.73l-.15-.08a2 2 0 0 1-1-1.74v-.5a2 2 0 0 1 1-1.74l.15-.09a2 2 0 0 0 .73-2.73l-.22-.38a2 2 0 0 0-2.73-.73l-.15.08a2 2 0 0 1-2 0l-.43-.25a2 2 0 0 1-1-1.73V4a2 2 0 0 0-2-2z"/><circle cx="12" cy="12" r="3"/></symbol>
    <symbol id="hydrogen" viewBox="0 0 24 24"><path d="M6 12h12"/><path d="M6 20V4"/><path d="M18 20V4"/></symbol>
    <symbol id="spin" viewBox="0 0 24 24"><path d="M3 12a9 9 0 1 0 9-9 9.75 9.75 0 0 0-6.74 2.74L3 8"/><path d="M3 3v5h5"/></symbol>
    <symbol id="benzene" viewBox="0 0 24 24"><path d="M21 16V8a2 2 0 0 0-1-1.73l-7-4a2 2 0 0 0-2 0l-7 4A2 2 0 0 0 3 8v8a2 2 0 0 0 1 1.73l7 4a2 2 0 0 0 2 0l7-4A2 2 0 0 0 21 16z"/><circle cx="12" cy="12" r="4"/></symbol>
    <symbol id="console" viewBox="0 0 24 24"><rect width="18" height="18" x="3" y="3" rx="2"/><path d="m10 8 4 4-4 4"/></symbol>
    <symbol id="measure" viewBox="0 0 24 24"><path d="M21.3 15.3a2.4 2.4 0 0 1 0 3.4l-2.6 2.6a2.4 2.4 0 0 1-3.4 0L2.7 8.7a2.41 2.41 0 0 1 0-3.4l2.6-2.6a2.41 2.41 0 0 1 3.4 0Z"/><path d="m14.5 12.5 2-2"/><path d="m11.5 9.5 2-2"/><path d="m8.5 6.5 2-2"/><path d="m17.5 15.5 2-2"/></symbol>
    <symbol id="label" viewBox="0 0 24 24"><path d="M12 2H2v10l9.29 9.29c.94.94 2.48.94 3.42 0l6.58-6.58c.94-.94.94-2.48 0-3.42L12 2Z"/><path d="M7 7h.01"/></symbol>
    <symbol id="camera" viewBox="0 0 24 24"><path d="M14.5 4h-5L7 7H4a2 2 0 0 0-2 2v9a2 2 0 0 0 2 2h16a2 2 0 0 0 2-2V9a2 2 0 0 0-2-2h-3l-2.5-3z"/><circle cx="12" cy="13" r="3"/></symbol>
    <symbol id="checked" viewBox="0 0 24 24"><path d="M22 11.08V12a10 10 0 1 1-5.93-9.14"/><path d="m9 11 3 3L22 4"/></symbol>
    <symbol id="circle" viewBox="0 0 24 24"><circle cx="12" cy="12" r="10"/></symbol>
    <symbol id="help" viewBox="0 0 24 24"><circle cx="12" cy="12" r="10"/><path d="M9.09 9a3 3 0 0 1 5.83 1c0 2-3 3-3 3"/><path d="M12 17h.01"/></symbol>
    <symbol id="menu" viewBox="0 0 24 24"><line x1="4" x2="20" y1="12" y2="12"/><line x1="4" x2="20" y1="6" y2="6"/><line x1="4" x2="20" y1="18" y2="18"/></symbol>
    <symbol id="search" viewBox="0 0 24 24"><circle cx="11" cy="11" r="8"/><path d="m21 21-4.3-4.3"/></symbol>
    <symbol id="close" viewBox="0 0 24 24"><path d="M18 6 6 18"/><path d="m6 6 12 12"/></symbol>
  </defs>
</svg>
